<svg width="303" height="303" viewBox="0 0 303 303" fill="none" xmlns="http://www.w3.org/2000/svg">
<path d="M90.9305 24.3293H39.475V77.9664H90.9305V24.3293Z" fill="#E0E0E0"/>
<path d="M87.4461 24.3293H35.9906V77.9664H87.4461V24.3293Z" fill="#EBEBEB"/>
<path d="M80.5312 31.5381H42.9107V70.7523H80.5312V31.5381Z" fill="#FAFAFA"/>
<path d="M42.9108 71.0156C42.634 71.4108 42.3194 71.7782 41.9715 72.1125C41.3655 72.7185 40.5171 73.5972 39.5475 74.5365C38.5779 75.4758 37.7295 76.306 37.1235 76.8938C36.7957 77.2339 36.4366 77.5423 36.0509 77.815C36.3169 77.4184 36.6235 77.0508 36.966 76.7181C37.572 76.1121 38.4204 75.2273 39.39 74.2941C40.3596 73.3608 41.208 72.5246 41.8443 71.9307C42.1652 71.5876 42.5229 71.2807 42.9108 71.0156Z" fill="#E0E0E0"/>
<path d="M80.5312 70.8987C80.9159 71.177 81.2731 71.4916 81.5978 71.838C82.2038 72.444 83.0825 73.2924 84.0218 74.262C84.9611 75.2316 85.7853 76.08 86.3791 76.686C86.721 77.0121 87.0295 77.3714 87.3003 77.7586C86.9126 77.4863 86.5551 77.1735 86.2337 76.8254C85.6277 76.2194 84.749 75.371 83.8097 74.4014C82.8704 73.4318 82.0463 72.5834 81.4524 71.9774C81.1082 71.6513 80.7994 71.2897 80.5312 70.8987Z" fill="#E0E0E0"/>
<path d="M80.4283 31.6439C80.7044 31.2574 81.0191 30.9 81.3676 30.5773C81.9736 29.9713 82.816 29.0926 83.7613 28.1533C84.7067 27.214 85.5793 26.3838 86.2156 25.796C86.5445 25.4548 86.9058 25.1463 87.2943 24.8749C87.0171 25.2586 86.7024 25.6138 86.355 25.9354C85.749 26.5414 84.9067 27.4261 83.931 28.3594C82.9554 29.2926 82.113 30.1289 81.4707 30.7228C81.1552 31.0642 80.806 31.3728 80.4283 31.6439Z" fill="#E0E0E0"/>
<path d="M42.8078 31.7397C42.4231 31.4613 42.0659 31.1468 41.7412 30.8004C41.1352 30.1944 40.2504 29.346 39.3172 28.3764C38.3839 27.4068 37.5477 26.5584 36.9538 25.9524C36.6125 25.6274 36.3059 25.2679 36.0387 24.8798C36.4219 25.1554 36.7771 25.4679 37.0992 25.813C37.7052 26.419 38.59 27.2674 39.5232 28.237C40.4565 29.2066 41.2928 30.055 41.8866 30.661C42.2308 30.9871 42.5396 31.3487 42.8078 31.7397Z" fill="#E0E0E0"/>
<path d="M80.4284 70.7524C80.4284 70.7524 80.4284 70.6857 80.4284 70.5645C80.4284 70.4433 80.4284 70.2494 80.4284 70.0191C80.4284 69.5283 80.4284 68.8071 80.4284 67.9042C80.4284 66.0498 80.4284 63.3471 80.4284 59.9111C80.4284 53.0451 80.392 43.2582 80.3617 31.5381L80.489 31.6593H42.9715L43.1109 31.52C43.1109 45.9125 43.1109 59.396 43.1109 70.7342L42.9897 70.613L70.1628 70.6736L77.7862 70.71H79.8042H77.8165H70.2112L42.9412 70.7706H42.82V70.6494C42.82 59.2929 42.82 45.8034 42.82 31.4351V31.2897H42.9655H80.4829H80.6041V31.4169C80.6041 43.1673 80.5557 52.9845 80.5435 59.8989C80.5435 63.3228 80.5435 66.0135 80.5072 67.8618C80.5072 68.7708 80.5072 69.4737 80.5072 69.9525C80.5072 70.1828 80.5072 70.3585 80.5072 70.4858C80.5072 70.613 80.4284 70.7524 80.4284 70.7524Z" fill="#E0E0E0"/>
<path d="M52.837 47.9233C52.837 47.9233 52.031 57.6193 62.533 57.6193C62.5451 52.4502 58.2728 48.3597 52.837 47.9233Z" fill="#EBEBEB"/>
<path d="M72.0776 47.9278C72.0776 47.9278 62.3816 47.1219 62.3816 57.6238C67.5508 57.642 71.6413 53.3637 72.0776 47.9278Z" fill="#EBEBEB"/>
<path d="M62.0784 42.6094C62.0784 42.6094 54.1458 49.7299 62.5147 57.6261C66.4052 53.5053 66.0537 47.0392 62.0784 42.6094Z" fill="#E0E0E0"/>
<path d="M223.408 220.74C220.206 218.739 216.589 217.495 212.833 217.104C211.106 216.929 209.197 216.977 207.828 218.025C207.669 218.119 207.538 218.253 207.448 218.414C207.357 218.574 207.311 218.756 207.313 218.94C207.399 219.194 207.573 219.409 207.804 219.546C212.106 222.825 218.615 223.243 223.408 220.728" fill="#E0E0E0"/>
<path d="M223.135 220.435C220.686 218.638 218.401 216.628 216.305 214.429C214.202 212.214 212.724 209.481 212.021 206.509C211.839 205.606 211.785 204.576 212.36 203.861C217.814 208.103 222.056 213.611 223.135 220.435Z" fill="#E0E0E0"/>
<path d="M223.354 220.696C222.848 217.724 222.889 214.685 223.475 211.727C224.16 208.8 225.753 206.001 228.256 204.328C229.195 206.528 228.789 209.061 228.129 211.358C227.102 214.918 225.501 218.287 223.39 221.332" fill="#E0E0E0"/>
<path d="M228.686 230.28C225.45 230.673 222.626 232.382 220.202 234.57C217.774 236.785 216.082 239.691 215.354 242.896C218.536 242.703 221.233 240.472 223.184 237.952C225.135 235.431 226.499 232.679 228.638 230.328" fill="#E0E0E0"/>
<path d="M229.85 231.789C228.575 228.551 228.13 225.046 228.553 221.592C228.976 218.138 230.255 214.844 232.274 212.009C234.122 218.572 233.444 225.99 229.85 231.789Z" fill="#E0E0E0"/>
<path d="M236.897 240.187C233.936 240.002 230.986 240.693 228.415 242.174C225.843 243.655 223.765 245.859 222.438 248.513C222.256 248.871 222.099 249.325 222.341 249.646C222.466 249.767 222.618 249.856 222.785 249.905C222.952 249.953 223.128 249.96 223.299 249.925C226.147 249.743 228.674 248.028 230.758 246.077C232.843 244.126 234.661 241.865 236.964 240.181" fill="#E0E0E0"/>
<path d="M236.674 239.731C235.156 234.842 235.064 229.623 236.407 224.684C236.934 222.745 237.825 220.708 239.619 219.799C239.69 219.751 239.77 219.719 239.855 219.704C239.94 219.69 240.026 219.693 240.11 219.715C240.254 219.791 240.364 219.918 240.419 220.072C241.019 221.427 241.279 222.908 241.176 224.387C241.068 225.859 240.841 227.321 240.497 228.756C239.934 231.429 239.637 234.301 238.17 236.604C237.823 237.157 237.511 237.732 237.237 238.325C236.958 238.931 236.958 239.119 236.704 239.585" fill="#E0E0E0"/>
<path d="M255.338 242.511C253.957 237.245 255.423 230.87 258.738 226.555C258.986 226.24 259.308 225.901 259.708 225.949C260.314 226.004 260.477 226.822 260.447 227.434C260.198 232.844 258.428 238.075 255.338 242.523" fill="#E0E0E0"/>
<path d="M257.022 243.659C263.416 245.326 270.748 243.708 276.063 239.787C272.877 238.19 269.238 237.745 265.761 238.527C262.319 239.314 259.174 240.854 257.029 243.659" fill="#E0E0E0"/>
<path d="M258.441 240.154C262.023 234.319 268.882 230.513 275.724 230.167C274.936 232.949 272.646 235.106 270.07 236.415C267.495 237.724 264.616 238.288 261.774 238.839C260.671 239.051 259.156 239.288 258.441 240.154Z" fill="#E0E0E0"/>
<path d="M255.695 223.164C256.665 219.843 257.641 216.498 257.907 213.044C258.174 209.59 257.677 205.996 255.889 203.033C252.544 209.505 252.211 217.061 255.592 223.509" fill="#E0E0E0"/>
<path d="M266.955 217.47C270.864 210.362 278.839 204.69 286.911 203.89C283.796 211.647 275.306 217.634 266.955 217.47Z" fill="#E0E0E0"/>
<path d="M264.495 218.867C270.325 219.752 275.294 223.479 280.742 225.733C281.883 226.287 283.149 226.529 284.414 226.436C285.004 226.433 285.578 226.249 286.06 225.908C286.541 225.567 286.906 225.086 287.104 224.531C287.303 223.975 287.326 223.372 287.17 222.804C287.014 222.235 286.686 221.728 286.232 221.352C285.46 220.64 284.553 220.09 283.566 219.734C277.627 217.261 271.264 217.201 265.01 218.697" fill="#E0E0E0"/>
<path d="M261.119 222.957C262.44 223.333 262.889 224.018 263.937 224.908C267.502 227.938 271.718 230.103 276.257 231.235C276.73 231.35 277.342 231.399 277.578 230.974C277.815 230.55 277.524 230.15 277.257 229.823C275.278 227.5 272.709 225.754 269.822 224.769C266.973 223.715 264.513 222.436 261.119 222.709" fill="#E0E0E0"/>
<path d="M257.307 198.251C259.701 200.453 262.528 202.13 265.608 203.173C268.688 204.217 271.952 204.605 275.19 204.311C275.488 204.317 275.777 204.214 276.003 204.02C276.451 203.53 275.912 202.772 275.397 202.366C270.136 198.269 263.773 196.567 257.313 198.227" fill="#E0E0E0"/>
<path d="M261.822 196.604C264.987 194.274 268.659 192.725 272.536 192.085C276.414 191.444 280.389 191.73 284.135 192.92C281.323 195.689 277.427 197.162 273.5 197.586C269.58 197.945 265.627 197.612 261.822 196.604Z" fill="#E0E0E0"/>
<path d="M260.029 185.251C259.514 180.003 259.847 175.864 259.483 170.592C259.483 170.168 259.368 169.665 258.974 169.513C258.423 169.301 257.968 169.974 257.762 170.531C256.998 172.975 256.802 175.561 257.19 178.092C257.577 180.623 258.538 183.032 259.999 185.136" fill="#E0E0E0"/>
<path d="M259.653 185.827C263.21 183.627 265.876 180.761 268.343 177.386C270.058 175.034 271.506 172.223 271.118 169.338C268.694 169.289 266.416 170.617 264.846 172.453C263.35 174.353 262.263 176.542 261.652 178.882C260.956 181.191 260.471 183.561 259.653 185.827Z" fill="#E0E0E0"/>
<path d="M268.191 183.457C276.014 180.559 283.256 176.289 289.577 170.846C287.026 169.815 284.123 170.434 281.547 171.452C275.712 173.809 270.942 177.784 268.082 183.384" fill="#E0E0E0"/>
<path d="M262.053 188.7C266.004 189.13 270.016 189.415 273.93 188.76C277.845 188.106 281.421 186.591 285.014 185.076C285.335 184.978 285.606 184.761 285.772 184.47C285.827 184.303 285.831 184.124 285.782 183.955C285.734 183.786 285.635 183.636 285.499 183.525C285.223 183.304 284.899 183.153 284.554 183.082C280.645 181.985 276.421 182.476 272.573 183.797C268.906 185.041 265.38 186.666 262.053 188.645" fill="#E0E0E0"/>
<path d="M239.51 198.432C236.819 192.978 236.995 186.651 239.316 181.046C240.958 183.543 241.134 186.718 240.855 189.694C240.576 192.669 239.643 195.717 239.595 198.705" fill="#E0E0E0"/>
<path d="M228.747 193.006C225.375 192.962 222.031 193.622 218.928 194.944C215.826 196.266 213.034 198.221 210.73 200.684C214.087 201.211 217.542 200.344 220.596 198.866C223.65 197.387 226.365 195.284 229.08 193.206" fill="#E0E0E0"/>
<path d="M221.517 190.587C218.227 190.321 215.057 189.915 211.894 190.884C208.731 191.854 205.834 194.054 204.567 197.102C207.671 197.351 210.785 196.763 213.585 195.399C216.367 194.035 219.022 192.424 221.517 190.587Z" fill="#E0E0E0"/>
<path d="M232.225 190.693C229.268 188.754 226.226 186.785 222.784 185.979C219.341 185.173 215.342 185.767 212.936 188.366C215.73 190.003 219.111 190.184 222.347 190.184C225.583 190.184 229.547 190.142 232.595 191.221" fill="#E0E0E0"/>
<path d="M232.243 190.852C227.183 185.883 225.268 176.957 227.304 170.17C231.297 176.283 233.043 183.594 232.243 190.852Z" fill="#E0E0E0"/>
<path d="M246.157 176.773C247.115 174.555 247.781 172.228 248.642 169.968C249.421 167.676 250.619 165.55 252.175 163.696C253.759 161.833 256.011 160.667 258.447 160.448C257.667 163.87 256.183 167.092 254.089 169.909C251.995 172.727 249.337 175.076 246.284 176.809" fill="#E0E0E0"/>
<path d="M243.643 179.709C242.061 177.54 240.237 174.588 238.098 172.964C235.958 171.34 233.165 170.359 230.553 170.983C231.907 173.354 233.795 175.378 236.067 176.892C238.339 178.407 240.933 179.372 243.643 179.709Z" fill="#E0E0E0"/>
<path d="M244.145 176.949C243.109 174.319 242.067 171.658 241.648 168.865C241.23 166.071 241.485 163.083 242.915 160.647C245.69 165.895 246.587 171.555 244.285 177.009" fill="#E0E0E0"/>
<path d="M246.181 160.655C247.757 155.45 252.52 151.614 257.665 149.856C258.304 149.598 258.996 149.494 259.683 149.553C260.025 149.593 260.347 149.732 260.611 149.953C260.875 150.173 261.068 150.466 261.168 150.796C261.356 151.68 260.622 152.474 259.956 153.062C255.932 156.496 251.255 159.079 246.206 160.655" fill="#E0E0E0"/>
<path d="M246.242 156.393C246.442 153.042 246.648 149.636 247.739 146.455C248.829 143.273 250.938 140.292 253.999 138.904C254.52 142.292 253.023 145.661 251.217 148.6C249.411 151.539 247.242 154.266 246.157 157.521" fill="#E0E0E0"/>
<path d="M246.157 158.709C244.86 154.916 244.721 150.098 242.455 146.789C240.867 144.481 238.322 142.905 236.952 140.463C236.126 142.808 236.241 145.382 237.273 147.644C238.305 149.883 239.727 151.921 241.473 153.661C243.157 155.479 244.594 156.807 246.157 158.709Z" fill="#E0E0E0"/>
<path d="M246.181 270.415C246.084 270.415 245.994 245.108 245.988 213.905C245.981 182.702 246.054 157.384 246.157 157.384C246.26 157.384 246.345 182.684 246.351 213.905C246.357 245.127 246.284 270.415 246.181 270.415Z" fill="#E0E0E0"/>
<path d="M268.294 194.616C267.989 194.765 267.67 194.884 267.343 194.973L264.725 195.858C262.519 196.61 259.483 197.676 256.192 199.046C252.902 200.415 249.86 201.579 248.108 203.094C247.411 203.679 246.856 204.414 246.484 205.245C246.236 205.851 246.193 206.203 246.157 206.197C246.142 206.108 246.142 206.018 246.157 205.93C246.197 205.678 246.259 205.431 246.345 205.191C246.675 204.308 247.218 203.521 247.927 202.9C248.984 202.007 250.166 201.274 251.435 200.724C252.835 200.07 254.393 199.385 256.041 198.706C259.344 197.355 262.404 196.282 264.634 195.61C265.749 195.264 266.658 195.004 267.294 194.834C267.62 194.73 267.955 194.657 268.294 194.616Z" fill="#E0E0E0"/>
<path d="M275.542 176.808C275.542 176.808 275.463 176.917 275.276 177.093L274.464 177.857L271.434 180.608L261.344 189.595C257.405 193.098 254.005 196.449 251.648 198.97C250.466 200.23 249.533 201.273 248.896 202C248.605 202.339 248.363 202.606 248.163 202.836C247.963 203.066 247.903 203.127 247.89 203.115C247.953 203.001 248.026 202.894 248.109 202.794C248.26 202.588 248.484 202.285 248.787 201.909C249.393 201.151 250.296 200.091 251.454 198.794C254.499 195.467 257.719 192.306 261.101 189.322C265.052 185.82 268.652 182.656 271.264 180.414L274.373 177.748L275.227 177.039C275.323 176.95 275.429 176.873 275.542 176.808Z" fill="#E0E0E0"/>
<path d="M257.095 193.16C256.992 193.111 257.81 191.215 258.634 188.809C259.459 186.403 259.846 184.379 259.955 184.397C260.065 184.415 259.816 186.494 258.98 188.93C258.63 189.961 258.226 190.972 257.768 191.96C257.602 192.39 257.376 192.794 257.095 193.16Z" fill="#E0E0E0"/>
<path d="M246.206 208.463C245.98 208.251 245.776 208.015 245.6 207.76L244.042 205.767C242.739 204.076 240.934 201.749 238.91 199.197C236.885 196.646 235.025 194.349 233.68 192.707L232.098 190.75C231.89 190.519 231.708 190.267 231.553 189.998C231.793 190.196 232.012 190.417 232.207 190.659C232.613 191.095 233.189 191.744 233.886 192.55C235.286 194.168 237.182 196.428 239.206 198.985C241.231 201.543 243.012 203.894 244.267 205.621C244.873 206.488 245.388 207.191 245.727 207.688C245.909 207.932 246.069 208.191 246.206 208.463Z" fill="#E0E0E0"/>
<path d="M241.358 202.251C241.297 202.318 240.006 200.779 239.328 198.452C238.946 197.211 238.79 195.912 238.867 194.616H239.025C238.958 194.907 238.904 195.064 238.873 195.058C238.843 195.052 238.843 194.888 238.873 194.592H239.037C239.113 195.854 239.33 197.104 239.685 198.318C240.334 200.585 241.455 202.191 241.358 202.251Z" fill="#E0E0E0"/>
<path d="M235.128 194.377C234.692 194.043 234.216 193.766 233.71 193.553C232.434 193.172 231.092 193.064 229.771 193.238C228.434 193.341 227.109 193.556 225.808 193.88C225.275 194.051 224.73 194.181 224.178 194.268C224.665 193.98 225.191 193.765 225.741 193.632C227.043 193.227 228.387 192.973 229.747 192.874C231.116 192.692 232.508 192.842 233.807 193.311C234.359 193.5 234.827 193.877 235.128 194.377Z" fill="#E0E0E0"/>
<path d="M233.613 192.473C233.613 192.527 232.789 192.139 231.443 191.679C227.924 190.473 224.154 190.187 220.493 190.849C219.093 191.097 218.244 191.358 218.226 191.297C218.404 191.185 218.598 191.103 218.802 191.055C219.339 190.866 219.888 190.713 220.444 190.594C224.142 189.782 227.996 190.075 231.528 191.436C232.059 191.64 232.577 191.874 233.079 192.139C233.437 192.333 233.625 192.448 233.613 192.473Z" fill="#E0E0E0"/>
<path d="M246.157 184.398C246.061 184.398 245.351 181.974 244.576 178.895C243.8 175.817 243.243 173.326 243.364 173.302C243.485 173.277 244.17 175.726 244.945 178.804C245.721 181.883 246.254 184.373 246.157 184.398Z" fill="#E0E0E0"/>
<path d="M246.26 184.398C246.151 184.435 245.691 182.786 244.503 181.102C243.758 180.106 242.888 179.21 241.915 178.435C242.284 178.527 242.626 178.704 242.915 178.95C243.649 179.488 244.286 180.145 244.8 180.896C245.584 181.916 246.087 183.123 246.26 184.398Z" fill="#E0E0E0"/>
<path d="M246.182 256.944C246.145 256.944 246.066 256.338 245.782 255.259C245.364 253.746 244.798 252.279 244.091 250.878C242.346 247.309 239.164 242.776 235.122 238.243C233.116 235.952 231.177 233.795 229.529 231.728C228.048 229.908 226.709 227.977 225.523 225.953C224.73 224.587 224.055 223.156 223.505 221.675C223.317 221.141 223.184 220.735 223.105 220.463C223.053 220.306 223.02 220.143 223.008 219.978C223.045 219.978 223.226 220.584 223.644 221.59C224.243 223.042 224.948 224.447 225.753 225.796C226.961 227.787 228.312 229.689 229.795 231.486C231.45 233.528 233.395 235.679 235.401 237.97C239.455 242.521 242.63 247.102 244.333 250.738C245.024 252.163 245.559 253.659 245.927 255.199C246.028 255.616 246.103 256.039 246.151 256.465C246.18 256.623 246.19 256.784 246.182 256.944Z" fill="#E0E0E0"/>
<path d="M266.167 234.356C265.83 234.579 265.48 234.782 265.119 234.962C264.171 235.502 263.264 236.11 262.404 236.78C261.131 237.77 259.937 238.858 258.835 240.035C257.58 241.356 256.289 242.895 254.974 244.537C252.344 247.84 249.884 250.761 248.411 253.094C247.66 254.251 247.115 255.227 246.757 255.912C246.592 256.277 246.4 256.63 246.181 256.966C246.199 256.863 246.231 256.763 246.278 256.669C246.357 256.481 246.466 256.197 246.63 255.851C247.092 254.856 247.612 253.889 248.187 252.955C249.623 250.567 252.066 247.604 254.69 244.307C256.011 242.659 257.314 241.119 258.592 239.798C259.713 238.625 260.929 237.547 262.228 236.574C263.111 235.921 264.05 235.348 265.034 234.859C265.379 234.684 265.64 234.575 265.852 234.496C265.946 234.428 266.054 234.381 266.167 234.356Z" fill="#E0E0E0"/>
<path d="M266.555 241.676C265.827 241.839 265.088 241.946 264.344 241.997C262.567 242.181 260.81 242.526 259.096 243.027C257.401 243.58 255.811 244.414 254.393 245.493C253.308 246.336 252.799 247.027 252.751 246.984C252.827 246.795 252.938 246.623 253.078 246.475C253.422 246.035 253.808 245.629 254.229 245.263C255.631 244.096 257.244 243.209 258.981 242.651C260.719 242.136 262.51 241.819 264.319 241.706C265.062 241.627 265.811 241.617 266.555 241.676Z" fill="#E0E0E0"/>
<path d="M253.393 246.188C253.278 246.121 254.278 244.594 255.047 242.552C255.817 240.51 255.944 238.673 256.078 238.692C256.135 239.095 256.122 239.505 256.041 239.904C255.931 240.858 255.713 241.797 255.393 242.703C255.058 243.601 254.627 244.461 254.108 245.267C253.922 245.611 253.68 245.922 253.393 246.188Z" fill="#E0E0E0"/>
<path d="M272.639 214.698C272.526 214.771 272.406 214.834 272.282 214.886L271.24 215.359C270.785 215.552 270.234 215.801 269.609 216.128C268.985 216.455 268.258 216.783 267.494 217.243L266.282 217.928C265.864 218.17 265.446 218.455 265.01 218.728C264.119 219.273 263.228 219.94 262.277 220.613C258.2 223.656 254.644 227.34 251.745 231.521C251.102 232.496 250.466 233.411 249.957 234.32C249.696 234.769 249.424 235.193 249.199 235.617L248.551 236.829C248.121 237.605 247.818 238.344 247.515 238.98C247.212 239.617 246.975 240.192 246.8 240.641L246.363 241.695C246.319 241.823 246.26 241.945 246.187 242.059C246.206 241.926 246.24 241.796 246.291 241.671C246.394 241.386 246.515 241.029 246.666 240.586C246.858 240.014 247.079 239.452 247.327 238.902C247.612 238.253 247.902 237.502 248.321 236.714L248.927 235.466C249.145 235.035 249.411 234.605 249.672 234.145C250.169 233.223 250.799 232.327 251.442 231.315C254.328 227.081 257.915 223.37 262.047 220.34C263.016 219.661 263.919 219.001 264.822 218.467C265.27 218.195 265.689 217.916 266.113 217.68L267.325 217.007C268.094 216.564 268.84 216.243 269.476 215.94C270.017 215.671 270.571 215.43 271.137 215.219L272.209 214.813C272.346 214.754 272.491 214.715 272.639 214.698Z" fill="#E0E0E0"/>
<path d="M256.823 225.293C256.971 224.784 257.274 224.333 257.689 224.002C258.663 223.152 259.906 222.676 261.198 222.657C262.462 222.649 263.715 222.894 264.883 223.378C265.377 223.534 265.846 223.761 266.276 224.051C265.779 223.952 265.292 223.806 264.822 223.615C263.665 223.219 262.451 223.014 261.228 223.009C260.017 223.034 258.845 223.446 257.883 224.184C257.504 224.528 257.15 224.899 256.823 225.293Z" fill="#E0E0E0"/>
<path d="M254.46 227.732C254.357 227.678 255.247 226.369 255.453 224.496C255.659 222.624 255.12 221.145 255.229 221.115C255.338 221.084 255.472 221.442 255.641 222.06C256.073 223.689 255.872 225.421 255.078 226.908C254.769 227.465 254.52 227.756 254.46 227.732Z" fill="#E0E0E0"/>
<path d="M228.705 260.576C229.25 270.272 232.165 280.083 236.649 290.027H256.138C260.416 280.149 263.125 270.332 263.61 260.576H228.705Z" fill="#E0E0E0"/>
<path d="M260.453 276.193C260.453 276.296 254.035 276.381 246.115 276.381C238.194 276.381 231.783 276.296 231.783 276.193C231.783 276.09 238.2 276.011 246.115 276.011C254.029 276.011 260.453 276.096 260.453 276.193Z" fill="#FAFAFA"/>
<path d="M260.017 279.695C260.017 279.798 253.999 279.883 246.582 279.883C239.164 279.883 233.141 279.798 233.141 279.695C233.141 279.592 239.158 279.513 246.582 279.513C254.005 279.513 260.017 279.598 260.017 279.695Z" fill="#FAFAFA"/>
<path d="M236.946 266.898C237.189 269.887 237.189 272.89 236.946 275.879C236.843 275.879 236.764 273.867 236.764 271.388C236.764 268.91 236.861 266.898 236.946 266.898Z" fill="#FAFAFA"/>
<path d="M247.406 266.898C247.509 266.898 247.587 268.977 247.587 271.546C247.587 274.115 247.509 276.194 247.406 276.194C247.303 276.194 247.224 274.115 247.224 271.546C247.224 268.977 247.303 266.898 247.406 266.898Z" fill="#FAFAFA"/>
<path d="M257.211 266.82C257.314 266.82 257.393 268.941 257.393 271.559C257.393 274.177 257.314 276.304 257.211 276.304C257.108 276.304 257.029 274.183 257.029 271.559C257.029 268.935 257.108 266.82 257.211 266.82Z" fill="#FAFAFA"/>
<path d="M263.004 266.899C263.004 267.002 255.478 267.081 246.194 267.081C236.91 267.081 229.383 267.002 229.383 266.899C229.383 266.796 236.904 266.718 246.194 266.718C255.484 266.718 263.004 266.796 263.004 266.899Z" fill="#FAFAFA"/>
<path d="M252.532 170.423H31.6575V177.228H252.532V170.423Z" fill="#EBEBEB"/>
<path d="M50.7645 176.394L34.2146 290.001H37.7658L58.1759 177.231L50.7645 176.394Z" fill="#EBEBEB"/>
<path d="M236.934 175.669L254.393 289.997H250.848L229.517 176.711L236.934 175.669Z" fill="#EBEBEB"/>
<path d="M40.0445 143.015V158.335H37.4872V159.983H40.0445V170.237H87.87V160.904H84.3309V158.868H87.87V155.838H89.4456V154.456H87.567V143.015H40.0445Z" fill="#F5F5F5"/>
<path d="M75.1624 143.038V170.06H87.8581V160.733H84.3191V158.873L87.8581 158.933V155.885H89.4641L89.4337 154.31L87.5673 154.267V142.996L75.1624 143.038Z" fill="#E0E0E0"/>
<path d="M76.0654 159.76C76.0654 159.857 67.4178 159.93 56.7461 159.93C46.0745 159.93 37.4208 159.857 37.4208 159.76C37.4208 159.663 46.0745 159.59 56.7461 159.59C67.4178 159.59 76.0654 159.669 76.0654 159.76Z" fill="#E0E0E0"/>
<path d="M76.0654 158.201C76.0654 158.298 67.4178 158.371 56.7461 158.371C46.0745 158.371 37.4208 158.298 37.4208 158.201C37.4208 158.104 46.0745 158.032 56.7461 158.032C67.4178 158.032 76.0654 158.11 76.0654 158.201Z" fill="#E0E0E0"/>
<path d="M78.5501 154.012C78.5501 154.109 69.8964 154.182 59.2308 154.182C48.5652 154.182 39.9055 154.109 39.9055 154.012C39.9055 153.915 48.5531 153.843 59.2308 153.843C69.9086 153.843 78.5501 153.922 78.5501 154.012Z" fill="#E0E0E0"/>
<path d="M78.7796 165.434C78.7796 165.531 70.132 165.61 59.4603 165.61C48.7887 165.61 40.135 165.531 40.135 165.434C40.135 165.337 48.7826 165.265 59.4603 165.265C70.1381 165.265 78.7796 165.331 78.7796 165.434Z" fill="#E0E0E0"/>
<path d="M91.4032 132.738H83.0646V142.652H91.4032V132.738Z" fill="#F5F5F5"/>
<path d="M83.3493 132.09H45.6682V143.271H83.3493V132.09Z" fill="#E0E0E0"/>
<path d="M91.6513 133.032H82.3371V132.105H91.6513C91.7767 132.105 91.8969 132.154 91.9856 132.243C92.0742 132.332 92.124 132.452 92.124 132.577C92.1193 132.699 92.0674 132.815 91.9793 132.9C91.8912 132.985 91.7736 133.032 91.6513 133.032Z" fill="#E0E0E0"/>
<path d="M91.6513 143.274H82.3371V142.328H91.6513C91.7767 142.328 91.8969 142.378 91.9856 142.467C92.0742 142.555 92.124 142.676 92.124 142.801C92.124 142.926 92.0742 143.047 91.9856 143.135C91.8969 143.224 91.7767 143.274 91.6513 143.274Z" fill="#E0E0E0"/>
<path d="M80.3922 132.09H75.9381V143.271H80.3922V132.09Z" fill="#EBEBEB"/>
<path d="M53.7096 132.217H49.2555V143.397H53.7096V132.217Z" fill="#EBEBEB"/>
<path d="M91.4033 134.38C91.4033 134.38 89.5853 134.429 87.3734 134.429C85.1615 134.429 83.3374 134.429 83.3374 134.38C83.3374 134.332 85.1554 134.326 87.3734 134.326C89.5913 134.326 91.4033 134.35 91.4033 134.38Z" fill="#E0E0E0"/>
<path d="M91.4033 135.865C91.4033 135.865 89.5853 135.913 87.3734 135.913C85.1615 135.913 83.3374 135.913 83.3374 135.865C83.3374 135.816 85.1554 135.816 87.3734 135.816C89.5913 135.816 91.4033 135.834 91.4033 135.865Z" fill="#E0E0E0"/>
<path d="M91.4033 137.691C91.4033 137.691 89.5853 137.74 87.3734 137.74C85.1615 137.74 83.3374 137.74 83.3374 137.691C83.3374 137.643 85.1554 137.643 87.3734 137.643C89.5913 137.643 91.4033 137.661 91.4033 137.691Z" fill="#E0E0E0"/>
<path d="M91.4033 139.522C91.4033 139.522 89.5853 139.571 87.3734 139.571C85.1615 139.571 83.3374 139.571 83.3374 139.522C83.3374 139.474 85.1554 139.474 87.3734 139.474C89.5913 139.474 91.4033 139.492 91.4033 139.522Z" fill="#E0E0E0"/>
<path d="M91.4033 141.354C91.4033 141.354 89.5853 141.402 87.3734 141.402C85.1615 141.402 83.3374 141.402 83.3374 141.354C83.3374 141.305 85.1554 141.305 87.3734 141.305C89.5913 141.305 91.4033 141.324 91.4033 141.354Z" fill="#E0E0E0"/>
<path d="M73.5383 136.688H56.5884V138.7H73.5383V136.688Z" fill="#EBEBEB"/>
<path d="M75.4351 121.233L80.1256 132.25H77.1077L75.023 126.366L75.4351 121.233Z" fill="#E0E0E0"/>
<path d="M61.0361 111.272L59.2241 132.252H74.5499L76.2345 111.272H61.0361Z" fill="#EBEBEB"/>
<path d="M62.533 112.934L60.9453 130.508L72.4532 130.66L74.0046 112.831L62.533 112.934Z" fill="#FAFAFA"/>
<path d="M64.9753 115.369L64.0724 127.458H70.2111L71.2898 115.369H64.9753Z" fill="#E0E0E0"/>
<path d="M241.092 33.2901L235.426 33.3208L235.579 61.5176L241.245 61.4869L241.092 33.2901Z" fill="#E0E0E0"/>
<path d="M201.006 33.3631L186.329 33.4425L186.413 49.0104L201.09 48.931L201.006 33.3631Z" fill="#EBEBEB"/>
<path d="M215.61 33.2901L200.933 33.3695L201.018 48.9374L215.695 48.858L215.61 33.2901Z" fill="#F5F5F5"/>
<path d="M186.351 37.7536C196.101 37.8385 205.882 37.7536 215.633 37.6203C215.669 37.6132 215.701 37.5939 215.724 37.5657C215.747 37.5375 215.76 37.5022 215.76 37.4658C215.76 37.4293 215.747 37.394 215.724 37.3658C215.701 37.3376 215.669 37.3184 215.633 37.3112C205.884 37.2547 196.126 37.3133 186.357 37.487C186.322 37.487 186.288 37.501 186.263 37.526C186.238 37.551 186.224 37.5849 186.224 37.6203C186.224 37.6557 186.238 37.6896 186.263 37.7146C186.288 37.7396 186.322 37.7536 186.357 37.7536H186.351Z" fill="#E0E0E0"/>
<path d="M203.847 48.6753L177.183 48.8196L177.252 61.503L203.915 61.3587L203.847 48.6753Z" fill="#EBEBEB"/>
<path d="M230.382 48.5292L203.718 48.6735L203.787 61.3569L230.45 61.2126L230.382 48.5292Z" fill="#F5F5F5"/>
<path d="M177.194 52.3559C194.908 52.5559 212.682 52.3559 230.395 52.0954C230.437 52.0954 230.477 52.0788 230.507 52.0492C230.536 52.0197 230.553 51.9796 230.553 51.9378C230.553 51.896 230.536 51.8559 230.507 51.8264C230.477 51.7969 230.437 51.7802 230.395 51.7802C212.682 51.6893 194.902 51.6954 177.194 52.0893C177.159 52.0893 177.125 52.1034 177.1 52.1284C177.075 52.1534 177.061 52.1873 177.061 52.2226C177.061 52.258 177.075 52.2919 177.1 52.3169C177.125 52.3419 177.159 52.3559 177.194 52.3559Z" fill="#E0E0E0"/>
<path d="M270.525 61.5127H167.226V66.0577H270.525V61.5127Z" fill="#E0E0E0"/>
<path d="M188.332 63.6997H184.139V79.2073H188.332V63.6997Z" fill="#E0E0E0"/>
<path d="M250.933 63.6997H246.739V79.2073H250.933V63.6997Z" fill="#E0E0E0"/>
<path d="M246.616 22.7742L240.95 22.8048L241.16 61.5882L246.826 61.5576L246.616 22.7742Z" fill="#EBEBEB"/>
<path d="M255.472 30L246.667 30.0476L246.837 61.4743L255.642 61.4267L255.472 30Z" fill="#F5F5F5"/>
<path d="M255.417 36.0635C253.954 36.2153 252.482 36.2659 251.011 36.215C249.543 36.266 248.073 36.2154 246.612 36.0635C249.543 35.8615 252.485 35.8615 255.417 36.0635Z" fill="#E0E0E0"/>
<path d="M255.417 34.7387C253.954 34.8904 252.482 34.9411 251.011 34.8902C249.543 34.9412 248.073 34.8906 246.612 34.7387C249.543 34.5367 252.485 34.5367 255.417 34.7387Z" fill="#E0E0E0"/>
<path d="M255.417 56.7058C252.485 56.9078 249.543 56.9078 246.612 56.7058C249.543 56.5038 252.485 56.5038 255.417 56.7058Z" fill="#E0E0E0"/>
<path d="M255.417 55.3859C252.485 55.5879 249.543 55.5879 246.612 55.3859C249.543 55.1839 252.485 55.1839 255.417 55.3859Z" fill="#E0E0E0"/>
<path d="M251.157 52.5096C251.072 52.5096 250.999 49.3403 250.999 45.4255C250.999 41.5107 251.072 38.3474 251.157 38.3474C251.242 38.3474 251.308 41.5168 251.308 45.4255C251.308 49.3342 251.236 52.5096 251.157 52.5096Z" fill="#E0E0E0"/>
<path d="M265.095 37.7289H255.508V61.4538H265.095V37.7289Z" fill="#EBEBEB"/>
<path d="M245.333 29.4068C245.334 29.7295 245.24 30.0452 245.061 30.3141C244.883 30.583 244.629 30.7928 244.331 30.9172C244.033 31.0415 243.705 31.0746 243.389 31.0124C243.072 30.9502 242.781 30.7954 242.553 30.5677C242.324 30.3399 242.168 30.0495 242.105 29.7331C242.041 29.4167 242.073 29.0887 242.196 28.7904C242.32 28.4922 242.529 28.2373 242.797 28.0579C243.065 27.8785 243.38 27.7827 243.703 27.7827C244.134 27.7827 244.548 27.9536 244.854 28.258C245.159 28.5624 245.332 28.9755 245.333 29.4068Z" fill="#E0E0E0"/>
<path d="M244.206 33.8906H243.2V56.961H244.206V33.8906Z" fill="#E0E0E0"/>
<path d="M278.669 290.002C278.669 290.086 221.705 290.159 151.506 290.159C81.3071 290.159 24.331 290.086 24.331 290.002C24.331 289.917 81.2587 289.844 151.506 289.844C221.754 289.844 278.669 289.911 278.669 290.002Z" fill="#263238"/>
<path d="M150.464 213.237L175.449 290.005H170.898L141.628 213.237H150.464Z" fill="#E0E0E0"/>
<path d="M150.463 213.234H149.857H148.161L141.604 213.27L141.664 213.179C146.682 226.251 157.499 254.521 170.031 287.245C170.371 288.141 170.71 289.063 171.049 289.917L170.904 289.82H175.449L175.297 290.026C168.322 268.507 162.099 249.327 157.62 235.523C155.39 228.608 153.596 223.045 152.36 219.197C151.754 217.276 151.269 215.785 150.942 214.767L150.579 213.61C150.5 213.349 150.463 213.21 150.463 213.21C150.463 213.21 150.512 213.331 150.597 213.585L150.979 214.719C151.312 215.731 151.803 217.203 152.433 219.106C153.693 222.942 155.511 228.487 157.778 235.371C162.293 249.194 168.565 268.392 175.594 289.911L175.661 290.117H170.813L170.77 290.014C170.437 289.129 170.092 288.238 169.752 287.342C157.299 254.569 146.543 226.269 141.579 213.216V213.125H141.676L148.27 213.161H149.948C150.288 213.222 150.463 213.234 150.463 213.234Z" fill="#263238"/>
<path d="M101.293 213.237L76.3075 290.005H80.8525L110.128 213.237H101.293Z" fill="#E0E0E0"/>
<path d="M101.293 213.234C101.293 213.234 101.481 213.234 101.856 213.234H103.535L110.128 213.198H110.225L110.189 213.289C105.232 226.342 94.4753 254.642 82.022 287.415L80.9978 290.087L80.9615 290.19H76.1135L76.1801 289.984L94.0026 235.444L99.3475 219.179C99.9535 217.276 100.469 215.804 100.802 214.792L101.184 213.658C101.269 213.404 101.317 213.283 101.317 213.283C101.317 213.283 101.281 213.422 101.202 213.683L100.838 214.84C100.511 215.858 100.032 217.349 99.4202 219.27C98.1779 223.118 96.3902 228.681 94.1601 235.596C89.6757 249.4 83.4582 268.58 76.4831 290.099L76.3316 289.893H80.8766L80.7312 289.99L81.7493 287.318C94.2813 254.594 105.098 226.3 110.086 213.258L110.152 213.349L103.589 213.313H101.899L101.293 213.234Z" fill="#263238"/>
<path d="M142.271 214.922C142.134 215.038 141.988 215.144 141.834 215.237L140.55 216.086L135.817 219.188C131.823 221.818 126.315 225.467 120.261 229.527L104.759 239.98L100.057 243.137L98.778 243.95C98.6336 244.057 98.4794 244.15 98.3174 244.228C98.4508 244.109 98.5926 244 98.7416 243.901L99.99 243.01L104.638 239.774C108.571 237.059 114.031 233.332 120.091 229.272C126.151 225.212 131.672 221.588 135.702 219.007C137.713 217.722 139.338 216.686 140.489 215.977L141.804 215.177C141.953 215.08 142.109 214.995 142.271 214.922Z" fill="#263238"/>
<path d="M94.3358 131.396C94.3358 131.396 86.5063 132.201 85.367 136.916C84.2277 141.631 80.519 199.94 85.367 208.2C90.215 216.46 152.633 215.308 156.966 214.175C161.299 213.042 163.341 210.23 162.899 206.794C162.456 203.358 119.951 199.098 119.951 199.098L122.545 138.243C122.545 138.243 107.262 130.547 94.3358 131.396Z" fill="#263238"/>
<path d="M162.935 208.266H162.747H162.19L160.051 208.32C158.19 208.369 155.5 208.393 152.173 208.387C145.507 208.387 136.326 208.157 126.199 207.43C121.139 207.06 116.322 206.593 111.952 206.096C107.583 205.6 103.656 205.054 100.372 204.539C98.7234 204.297 97.2447 204.036 95.9418 203.818C94.6389 203.6 93.5178 203.4 92.6028 203.212L90.5 202.806L89.9546 202.697L89.7728 202.648C89.8351 202.64 89.8983 202.64 89.9606 202.648L90.5121 202.727L92.627 203.073C93.5421 203.23 94.6632 203.418 95.9721 203.612C97.2811 203.806 98.7597 204.06 100.402 204.285C103.693 204.775 107.619 205.278 111.983 205.775C116.346 206.272 121.164 206.715 126.224 207.084C136.344 207.811 145.525 208.06 152.173 208.133C155.493 208.169 158.184 208.175 160.051 208.169H162.753L162.935 208.266Z" fill="#455A64"/>
<path d="M153.772 245.087C153.724 245.16 143.834 238.209 131.69 229.573C119.546 220.938 109.734 213.866 109.783 213.817C109.831 213.769 119.721 220.695 131.872 229.337C144.022 237.979 153.821 245.014 153.772 245.087Z" fill="#263238"/>
<path d="M99.869 79.04L94.8695 70.2349C97.9574 65.2214 99.0582 59.2342 97.9558 53.4502C96.8533 47.6662 93.6273 42.5038 88.9118 38.9776C84.1963 35.4515 78.3323 33.8167 72.4727 34.3946C66.613 34.9724 61.1814 37.7212 57.2455 42.1005C53.3096 46.4798 51.1541 52.173 51.2026 58.0609C51.2512 63.9488 53.5004 69.6056 57.5081 73.9193C61.5157 78.2331 66.992 80.8918 72.8604 81.3729C78.7288 81.854 84.5649 80.1226 89.2216 76.5191L99.869 79.04Z" fill="white"/>
<path d="M99.869 79.0411L89.1912 76.6171H89.0458L89.1367 76.4959L89.27 76.6292C85.9876 79.1939 82.0834 80.8417 77.956 81.4045C76.7199 81.5802 75.4707 81.6451 74.223 81.5984C73.5807 81.562 72.9262 81.5439 72.2657 81.4893L70.2719 81.1924C64.3308 80.0267 59.0567 76.6421 55.5219 71.7267C53.5589 69.0155 52.1973 65.9164 51.5283 62.6367C50.8495 59.158 50.9446 55.5725 51.8071 52.1347C52.6998 48.5467 54.4343 45.2229 56.8672 42.4387C59.3372 39.5808 62.4535 37.3537 65.9572 35.9424C69.3179 34.6153 72.9339 34.0603 76.538 34.3183C79.9415 34.5531 83.2518 35.5337 86.234 37.1907C91.5937 40.1555 95.611 45.0643 97.4571 50.9045C98.1845 53.3974 98.5298 55.9861 98.4812 58.5825C98.3527 62.724 97.1341 66.7583 94.9482 70.2783V70.1814L99.869 79.035C99.5417 78.4775 98.0025 75.8172 94.7907 70.2723V70.2298V70.1814C96.9295 66.6778 98.1102 62.6738 98.2146 58.5704C98.2541 56.0071 97.9027 53.4528 97.1723 50.9954C95.348 45.2221 91.3817 40.3667 86.0885 37.4271C83.1461 35.7991 79.8812 34.839 76.5258 34.6152C72.977 34.3633 69.4169 34.9121 66.1087 36.2211C62.6607 37.6127 59.5944 39.8065 57.1641 42.6205C54.7676 45.3624 53.0599 48.6366 52.1828 52.1711C51.3276 55.5541 51.2303 59.0844 51.898 62.5094C52.5459 65.7541 53.8807 68.8225 55.8128 71.5085C59.292 76.3695 64.4929 79.7219 70.3568 80.8833L72.3263 81.1863C72.9807 81.2409 73.6231 81.259 74.2594 81.3015C75.4924 81.351 76.7273 81.2922 77.9499 81.1257C82.0393 80.5861 85.9144 78.9788 89.1852 76.4656L89.7912 76.0111L89.3367 76.6171L89.2822 76.4716L99.869 79.0411Z" fill="#263238"/>
<path d="M70.7628 54.7408H72.2535L75.5017 50.2079V47.2324C75.5017 47.2324 77.8045 47.0931 77.5379 50.9836C77.2712 54.8741 77.5379 53.8863 77.5379 53.8863C77.5379 53.8863 82.4283 53.8863 82.8343 54.3348C83.1312 54.6378 83.2645 59.4979 83.313 62.1279C83.3469 62.7635 83.1664 63.3921 82.8005 63.9129C82.4346 64.4338 81.9045 64.8167 81.295 65.0004C81.1234 65.0483 80.946 65.0727 80.7678 65.0731C79.5558 65.0731 73.3201 64.0792 73.3201 64.0792H70.7446L70.7628 54.7408Z" fill="#3E7D89"/>
<path d="M66.4966 53.9199L67.4177 64.1068H69.9689V54.126L66.4966 53.9199Z" fill="#3E7D89"/>
<path d="M194.144 183.014C194.144 183.014 208.167 183.014 208.743 196.079C209.318 209.145 167.923 278.071 167.923 278.071L154.815 271.847L182.921 204.963L121.933 198.964L123.66 183.62L194.144 183.014Z" fill="#FFBE9D"/>
<path d="M170.692 274.098L170.286 275.025C170.286 275.025 183.133 288.236 181.982 291.278L151.009 277.34L156.069 267.219C159.711 271.431 164.426 273.843 170.692 274.098Z" fill="#455A64"/>
<g opacity="0.6">
<path opacity="0.6" d="M157.724 271.932C157.385 271.889 157.042 271.972 156.761 272.166C156.479 272.359 156.278 272.649 156.196 272.98C156.14 273.317 156.216 273.663 156.408 273.946C156.599 274.23 156.893 274.428 157.227 274.501C157.585 274.545 157.948 274.455 158.244 274.248C158.541 274.041 158.75 273.732 158.833 273.38C158.856 273.023 158.74 272.671 158.508 272.398C158.276 272.125 157.947 271.954 157.59 271.92" fill="white"/>
</g>
<g opacity="0.6">
<path opacity="0.6" d="M151.009 277.344L152.221 274.92L181.461 289.167C181.461 289.167 182.57 290.379 181.976 291.288L151.009 277.344Z" fill="white"/>
</g>
<path d="M170.353 275.158C170.28 275.304 169.492 275.037 168.535 275.188C167.577 275.34 166.886 275.794 166.771 275.673C166.656 275.552 167.28 274.776 168.45 274.613C169.619 274.449 170.45 275.031 170.353 275.158Z" fill="#263238"/>
<path d="M173.001 277.962C172.97 278.12 172.195 278.083 171.395 278.495C170.595 278.908 170.14 279.514 169.995 279.441C169.85 279.368 170.134 278.465 171.14 277.974C172.146 277.483 173.061 277.817 173.001 277.962Z" fill="#263238"/>
<path d="M173.098 282.678C172.946 282.678 173.098 281.8 173.831 281.145C174.564 280.491 175.449 280.485 175.455 280.636C175.461 280.788 174.849 281.036 174.243 281.581C173.637 282.127 173.255 282.733 173.098 282.678Z" fill="#263238"/>
<path d="M167.613 133.756L170.104 141.373L156.523 142.434L154.942 138.355L167.613 133.756Z" fill="#FFBE9D"/>
<path d="M206.173 143.746C206.434 144.267 207.112 144.352 207.634 144.624C208.119 144.902 208.517 145.311 208.781 145.804C209.046 146.297 209.167 146.854 209.13 147.412C209.043 148.528 208.674 149.604 208.058 150.539C207.868 150.919 207.592 151.249 207.252 151.503C207.079 151.622 206.874 151.687 206.664 151.687C206.454 151.687 206.249 151.622 206.076 151.503C205.676 151.169 205.725 150.551 205.809 150.036C206.131 148.103 205.712 145.661 206.167 143.752" fill="#FFBE9D"/>
<path d="M115.855 48.2341C115.74 47.3843 115.947 46.5222 116.436 45.8178C116.925 45.1134 117.661 44.6177 118.497 44.4285L133.489 34.89C139.204 33.6053 146.403 43.1498 147.427 48.9068C148.462 55.2344 148.868 61.6488 148.639 68.0564C148.227 77.91 141.767 78.9644 141.767 78.9644L146.615 111.731L123.254 97.3262L115.855 48.2341Z" fill="#FFBE9D"/>
<path d="M144.313 57.0819C144.353 57.4041 144.265 57.7293 144.07 57.9884C143.874 58.2475 143.585 58.4201 143.264 58.4696C142.948 58.5281 142.622 58.4588 142.358 58.277C142.093 58.0952 141.911 57.8157 141.852 57.5C141.812 57.1778 141.899 56.8526 142.095 56.5935C142.291 56.3344 142.58 56.1618 142.901 56.1123C143.216 56.0538 143.542 56.1231 143.807 56.3049C144.072 56.4867 144.254 56.7662 144.313 57.0819Z" fill="#263238"/>
<path d="M146.24 53.5409C146.118 53.6742 145.125 53.656 143.87 54.1469C142.616 54.6378 141.785 55.2923 141.628 55.2559C141.47 55.2195 141.628 55.0438 142.01 54.7408C142.536 54.3107 143.133 53.9745 143.773 53.747C144.384 53.5117 145.033 53.3906 145.688 53.3894C146.124 53.3773 146.3 53.4803 146.24 53.5409Z" fill="#263238"/>
<path d="M131.902 57.6808C131.94 58.0036 131.852 58.3288 131.655 58.5877C131.458 58.8465 131.169 59.0189 130.847 59.0685C130.533 59.1252 130.208 59.055 129.945 58.8734C129.681 58.6918 129.5 58.4134 129.441 58.0989C129.4 57.7764 129.486 57.4504 129.682 57.191C129.878 56.9315 130.168 56.7592 130.49 56.7112C130.806 56.6527 131.132 56.722 131.396 56.9038C131.661 57.0856 131.843 57.365 131.902 57.6808Z" fill="#263238"/>
<path d="M133.204 56.0787C133.023 56.1514 132.089 55.5939 130.641 55.3818C129.193 55.1697 128.059 55.3818 127.92 55.2849C127.781 55.1879 128.059 55.0849 128.526 54.9697C129.253 54.8254 130 54.811 130.732 54.9273C131.441 55.0244 132.126 55.2547 132.75 55.606C133.18 55.8545 133.32 56.0484 133.204 56.0787Z" fill="#263238"/>
<path d="M139.119 64.3263C139.795 64.0202 140.508 63.8023 141.24 63.6779C141.573 63.6052 141.888 63.5022 141.919 63.2598C141.908 62.9046 141.787 62.5616 141.573 62.278C141.169 61.47 140.733 60.6439 140.264 59.7995C138.446 56.2665 137.065 53.3456 137.234 53.2729C137.404 53.2001 138.98 56.0059 140.81 59.5389L142.076 62.0356C142.339 62.423 142.457 62.8908 142.409 63.3567C142.374 63.4825 142.31 63.5986 142.223 63.6962C142.136 63.7938 142.027 63.8704 141.906 63.9203C141.723 63.9921 141.532 64.0409 141.337 64.0657C140.611 64.2448 139.866 64.3323 139.119 64.3263Z" fill="#263238"/>
<path d="M141.761 78.9903C137.235 79.6595 132.611 79.0291 128.429 77.1722C128.429 77.1722 132.41 83.9837 141.985 81.9475L141.761 78.9903Z" fill="#EB996E"/>
<path d="M139.271 67.5894C138.945 67.1649 138.528 66.8188 138.051 66.5766C137.574 66.3343 137.048 66.2021 136.513 66.1896C136.204 66.196 135.904 66.2962 135.653 66.477C135.402 66.6577 135.212 66.9104 135.107 67.2016C135.003 67.5778 134.991 67.9737 135.072 68.3557C135.153 68.7376 135.325 69.0943 135.574 69.3953C135.818 69.7139 136.15 69.9541 136.529 70.0865C136.908 70.2189 137.318 70.2378 137.707 70.1407C138.339 69.8799 138.878 69.4342 139.252 68.862C139.388 68.7163 139.486 68.5394 139.537 68.3469C139.559 68.2255 139.555 68.1007 139.523 67.9813C139.492 67.8619 139.435 67.7509 139.356 67.6561" fill="#EB996E"/>
<path d="M135.295 65.7026C135.513 65.6602 135.683 67.1085 137.041 67.9932C138.398 68.878 139.925 68.5387 139.961 68.7386C139.961 68.8295 139.652 69.0598 138.998 69.1568C138.152 69.267 137.294 69.0761 136.574 68.6174C135.883 68.1734 135.392 67.4779 135.204 66.6782C135.077 66.0541 135.198 65.7026 135.295 65.7026Z" fill="#263238"/>
<path d="M133.629 50.1226C133.501 50.4862 132.156 50.3347 130.599 50.5529C129.041 50.771 127.756 51.2134 127.538 50.8922C127.441 50.7347 127.66 50.3893 128.144 50.0257C128.822 49.5781 129.593 49.291 130.398 49.186C131.204 49.081 132.022 49.1609 132.792 49.4197C133.386 49.6924 133.683 49.9469 133.629 50.1226Z" fill="#263238"/>
<path d="M146.312 50.5536C146.052 50.8869 144.876 50.7051 143.501 50.8445C142.125 50.9839 140.986 51.3354 140.683 51.0445C140.543 50.9051 140.683 50.5779 141.174 50.2385C141.841 49.8109 142.601 49.5512 143.391 49.4815C144.18 49.4119 144.975 49.5344 145.706 49.8385C146.228 50.0991 146.422 50.39 146.312 50.5536Z" fill="#263238"/>
<path d="M109.28 73.4198C109.522 69.0263 110.225 54.9611 113.061 47.2891C115.897 39.6171 119.891 36.1811 123.999 34.5631C125.551 33.9001 127.248 33.6487 128.925 33.8335C130.603 34.0182 132.204 34.6327 133.574 35.6175C135.683 37.1083 136.907 42.0169 136.907 42.0169C136.907 42.0169 126.939 45.459 124.181 51.7129C120.988 58.8637 120.418 62.3421 120.418 62.3421L119.557 66.1539C119.557 66.1539 121.43 82.7219 122.272 86.1519L108.759 99.2172C109.201 94.9025 109.037 77.8073 109.28 73.4198Z" fill="#263238"/>
<path d="M137.204 42.0424C137.204 42.0424 142.979 40.7395 145.894 47.0964C147.215 49.9749 148.524 58.6892 148.524 58.6892C148.524 58.6892 149.015 51.5687 148.251 47.6964C147.488 43.824 144.973 39.0972 141.664 36.7035C138.355 34.3098 135.847 33.4069 130.671 34.3159C132.23 34.7055 133.645 35.5317 134.75 36.6975C135.532 37.6125 135.919 38.4246 137.204 42.0424Z" fill="#263238"/>
<path d="M120.527 62.8117C120.175 60.6786 117.679 59.5151 115.946 60.8059C114.994 61.5088 114.352 62.7814 114.703 65.0479C115.649 71.1079 121.509 68.8899 121.49 68.7202C121.472 68.5505 120.939 65.3024 120.527 62.8117Z" fill="#FFBE9D"/>
<path d="M119.291 66.7155C119.291 66.7155 119.2 66.8064 119.036 66.9155C118.801 67.0589 118.519 67.1086 118.249 67.0549C117.576 66.9215 116.885 65.9883 116.685 64.9096C116.588 64.3945 116.609 63.8642 116.746 63.3583C116.771 63.1604 116.844 62.9716 116.959 62.8089C117.074 62.6461 117.228 62.5142 117.406 62.425C117.523 62.3761 117.653 62.3686 117.774 62.4039C117.895 62.4392 118.001 62.5151 118.073 62.6189C118.182 62.7765 118.158 62.8977 118.194 62.9038C118.23 62.9098 118.309 62.7826 118.194 62.5402C118.138 62.396 118.033 62.276 117.897 62.2008C117.711 62.1021 117.493 62.0804 117.291 62.1402C117.05 62.2285 116.836 62.3767 116.669 62.5707C116.501 62.7647 116.386 62.9982 116.334 63.2492C116.16 63.8102 116.126 64.4054 116.237 64.9823C116.461 66.1943 117.261 67.2367 118.176 67.3518C118.345 67.3732 118.516 67.3566 118.678 67.3031C118.839 67.2496 118.987 67.1607 119.109 67.0427C119.303 66.8609 119.315 66.7216 119.291 66.7155Z" fill="#EB996E"/>
<path d="M126.381 33.8963C126.381 33.9448 127.217 33.8236 128.55 33.8479C129.33 33.8632 130.103 34.0002 130.841 34.2539C131.737 34.5852 132.56 35.0874 133.265 35.7325C134.569 36.8981 135.586 38.3501 136.234 39.9745C136.731 41.1865 136.84 42.047 136.913 42.0349C136.904 41.8406 136.876 41.6478 136.828 41.4592C136.345 39.1888 135.147 37.133 133.411 35.5931C132.684 34.9198 131.828 34.4004 130.896 34.066C130.138 33.8125 129.343 33.6876 128.544 33.6964C128.009 33.6961 127.475 33.7305 126.944 33.7994C126.754 33.816 126.566 33.8485 126.381 33.8963Z" fill="#455A64"/>
<path d="M115.419 67.8411C115.421 67.8068 115.421 67.7724 115.419 67.7381L115.334 67.4654C115.291 67.3382 115.249 67.1867 115.194 67.017L115.031 66.411C114.7 65.0862 114.562 63.721 114.619 62.3568C114.696 60.3333 115.193 58.348 116.079 56.5271C117.212 54.3226 118.828 52.4023 120.806 50.9095C121.821 50.1259 122.884 49.4054 123.988 48.7521C125.054 48.1098 126.127 47.5765 127.121 46.9826C128.859 45.9223 130.512 44.729 132.065 43.4133C133.393 42.2922 134.417 41.3286 135.095 40.6499C135.441 40.3106 135.701 40.0439 135.877 39.8561L136.077 39.644C136.12 39.5955 136.144 39.5712 136.138 39.5652L136.065 39.6258L135.847 39.8258L135.047 40.6075C134.338 41.268 133.302 42.2134 131.962 43.3103C130.403 44.6042 128.75 45.781 127.018 46.8311C126.036 47.4371 124.951 47.9401 123.878 48.5885C122.764 49.2415 121.693 49.9662 120.673 50.758C118.661 52.2651 117.019 54.2112 115.873 56.4483C114.984 58.2946 114.497 60.3084 114.443 62.3568C114.401 63.7324 114.563 65.1067 114.922 66.4352L115.104 67.0412C115.17 67.2109 115.225 67.3563 115.267 67.4836L115.376 67.7563C115.4 67.8108 115.413 67.8411 115.419 67.8411Z" fill="#455A64"/>
<path d="M113.752 65.7037C113.752 65.7037 113.752 65.6673 113.752 65.6067L113.716 65.3159C113.716 65.0613 113.619 64.7099 113.57 64.2069C113.427 62.8419 113.405 61.4671 113.504 60.0982C113.652 58.0709 114.059 56.071 114.716 54.1473C115.536 51.7978 116.733 49.5975 118.261 47.6328C119.834 45.6911 121.669 43.9779 123.715 42.5424C125.533 41.1849 127.351 40.1184 128.799 39.1609C130.247 38.2034 131.453 37.4702 132.259 36.9126C132.665 36.646 132.968 36.4218 133.174 36.2703L133.411 36.1006L133.489 36.0339C133.489 36.0339 133.453 36.0339 133.398 36.0824L133.15 36.2339L132.211 36.8399C131.399 37.3671 130.199 38.1125 128.714 39.0215C127.229 39.9305 125.46 41.0213 123.593 42.3788C121.544 43.8159 119.707 45.5358 118.139 47.4873C116.582 49.4708 115.363 51.6988 114.534 54.0806C113.869 56.023 113.462 58.044 113.322 60.0921C113.237 61.467 113.284 62.8469 113.461 64.2129C113.522 64.6977 113.607 65.0674 113.649 65.3219C113.649 65.4371 113.691 65.534 113.71 65.6067C113.728 65.6795 113.746 65.7037 113.752 65.7037Z" fill="#455A64"/>
<path d="M146.106 89.0416C146.106 89.0416 153.918 92.2171 155.415 96.2833C156.911 100.35 168.268 133.928 168.268 133.928L155.087 138.982L149.076 111.348L146.106 89.0416Z" fill="#455A64"/>
<path d="M105.722 184.397C105.722 184.397 186.32 180.694 191.381 182.027C196.441 183.36 199.465 185.912 200.471 191.978C201.476 198.044 217.014 278.411 217.014 278.411L202.882 282.569C202.882 282.569 183.054 237.3 182.212 229.725C181.369 222.15 178.576 206.625 178.576 206.625C178.576 206.625 147.936 207.128 125.375 206.625C102.814 206.122 105.844 185.239 105.844 185.239L105.722 184.397Z" fill="#FFBE9D"/>
<path d="M202.707 282.933L202.604 282.69C201.792 280.836 182.751 237.295 181.915 229.756C181.139 222.805 178.697 208.97 178.333 206.928C175.303 206.977 146.597 207.401 125.381 206.928C118.37 206.77 113.091 204.643 109.68 200.614C104.516 194.511 105.438 185.967 105.553 185.245L105.365 184.112H105.704C109.001 183.961 186.417 180.422 191.459 181.755C197.119 183.252 199.816 186.203 200.773 191.942C201.767 197.929 217.135 277.569 217.317 278.375L217.366 278.642L202.707 282.933ZM178.836 206.316L178.885 206.571C178.915 206.722 181.684 222.193 182.521 229.689C183.315 236.846 201.482 278.6 203.058 282.199L216.675 278.2C215.681 273.055 201.149 197.844 200.18 192.027C199.271 186.573 196.701 183.749 191.308 182.331C186.532 181.064 111.794 184.433 106.08 184.694L106.171 185.245V185.288C106.171 185.379 104.959 194.099 110.158 200.232C113.455 204.122 118.582 206.171 125.405 206.328C147.7 206.825 178.285 206.328 178.594 206.328L178.836 206.316Z" fill="#EB996E"/>
<path d="M111.164 140.927L113.195 153.484C113.195 153.484 104.377 170.191 103.383 184.553C102.911 191.377 106.826 205.351 106.826 205.351C106.826 205.351 137.877 208.763 154.627 208.327L172.498 207.545L175.649 179.627L155.59 176.73L155.893 138.685C155.893 138.685 159.529 128.668 159.808 125.705C160.45 119.451 160.184 113.124 153.936 105.016L146.106 89.0416L143.495 87.8296L144.737 107.179L122.23 85.7935L110.831 89.884L107.601 105.125L111.164 140.927Z" fill="#455A64"/>
<g opacity="0.3">
<path opacity="0.3" d="M150.179 181.354C148.718 181.609 138.18 181.76 136.719 182.015C136.471 182.091 136.21 182.116 135.951 182.088C135.693 182.06 135.443 181.979 135.217 181.851C135.034 181.679 134.908 181.455 134.854 181.21C134.8 180.965 134.821 180.709 134.914 180.476C135.107 180.006 135.41 179.591 135.798 179.264C138.35 176.84 141.664 175.44 144.888 174.07C145.918 173.64 147.034 173.198 148.112 173.464C148.641 173.639 149.119 173.94 149.506 174.341C149.892 174.743 150.175 175.232 150.33 175.767C150.637 176.835 150.764 177.948 150.706 179.058" fill="black"/>
</g>
<g opacity="0.3">
<path opacity="0.3" d="M111.994 149.683C115.758 148.804 118.121 145.095 119.648 141.544C121.175 137.993 122.436 134.072 125.429 131.624C127.623 129.806 130.562 129.006 132.459 126.897C133.361 125.864 133.958 124.602 134.186 123.25C134.414 121.897 134.263 120.509 133.75 119.237C133.204 117.94 132.108 116.716 130.72 116.644C129.084 116.559 127.811 117.977 126.811 119.28C122.238 125.271 117.925 131.452 113.873 137.823C111.697 141.247 109.528 145.404 111.043 149.168" fill="black"/>
</g>
<path d="M112.019 91.8868C112.019 91.8868 105.65 93.9109 103.347 97.9044C101.044 101.898 97.2264 121.29 96.3053 126.514C95.3842 131.737 90.9301 153.232 96.3053 156.614C101.681 159.995 108.746 154.796 110.589 151.699C112.431 148.602 119.951 132.501 119.951 132.501L113.195 126.823C113.195 126.823 114.407 111.467 113.964 108.237C113.522 105.007 112.019 91.8868 112.019 91.8868Z" fill="#FFBE9D"/>
<path d="M92.0451 131.752L106.825 132.716L113.576 124.79L115.443 112.306L114.946 88.4235C114.946 88.4235 101.753 91.6413 98.899 101.671C96.784 109.082 92.0451 131.752 92.0451 131.752Z" fill="#455A64"/>
<path d="M118.2 103.507C117.352 103.392 116.267 104.392 116.988 106.804C117.594 108.816 118.733 110.773 118.648 111.894C118.564 113.015 118.127 115.348 118.127 116.56C118.074 117.745 117.959 118.927 117.782 120.099L107.722 132.219L116.43 139.903L123.321 129.08C123.321 129.08 125.399 129.426 126.605 128.044L128.423 125.965C128.423 125.965 133.089 124.238 132.138 121.723C132.138 121.723 133.52 120.408 132.265 118.3C132.265 118.3 132.92 116.106 131.968 114.815C131.968 114.815 131.883 111.876 131.102 111.355C130.32 110.834 122.236 110.749 122.236 110.749C121.796 109.405 121.288 108.084 120.715 106.792C119.83 105.331 119.382 103.665 118.2 103.507Z" fill="#FFBE9D"/>
<path d="M121.642 115.426C121.642 115.457 121.43 115.342 121.242 115.057C120.997 114.673 120.89 114.217 120.939 113.765C120.987 113.312 121.188 112.889 121.509 112.566C121.751 112.33 121.957 112.257 121.975 112.287C121.615 112.724 121.367 113.242 121.254 113.796C121.255 114.362 121.388 114.921 121.642 115.426Z" fill="#EB996E"/>
<path d="M131.629 114.599C130.41 114.954 129.157 115.176 127.89 115.26C126.634 115.442 125.362 115.485 124.096 115.387C125.342 115.17 126.598 115.022 127.86 114.945C129.109 114.757 130.367 114.642 131.629 114.599Z" fill="#EB996E"/>
<path d="M132.344 118.064C131.34 118.471 130.279 118.725 129.199 118.815C128.134 119.012 127.045 119.049 125.969 118.924C125.969 118.833 127.399 118.742 129.156 118.5C130.914 118.257 132.326 117.979 132.344 118.064Z" fill="#EB996E"/>
<path d="M132.168 121.62C130.6 122.101 128.952 122.264 127.32 122.099C128.118 121.924 128.929 121.821 129.744 121.79C130.546 121.663 131.357 121.606 132.168 121.62Z" fill="#EB996E"/>
<path d="M124.533 122.709C124.533 122.746 124.363 122.709 124.157 122.594C123.886 122.409 123.695 122.127 123.624 121.806C123.546 121.489 123.59 121.154 123.745 120.867C123.866 120.655 124 120.57 124.03 120.594C124.06 120.618 123.782 121.121 123.927 121.734C124.072 122.346 124.575 122.63 124.533 122.709Z" fill="#EB996E"/>
<path d="M122.545 119.826C122.545 119.856 122.345 119.753 122.157 119.493C121.916 119.149 121.777 118.743 121.757 118.323C121.732 117.902 121.825 117.483 122.024 117.111C122.187 116.833 122.345 116.711 122.375 116.736C122.19 117.237 122.088 117.765 122.072 118.299C122.15 118.83 122.309 119.345 122.545 119.826Z" fill="#EB996E"/>
<path d="M129.684 125.444C129.244 125.677 128.762 125.818 128.266 125.857C127.786 125.995 127.282 126.03 126.787 125.96C127.225 125.724 127.709 125.584 128.205 125.547C128.685 125.406 129.189 125.371 129.684 125.444Z" fill="#EB996E"/>
<path d="M125.787 110.804C125.787 110.895 124.575 110.895 123.042 111.046C121.509 111.198 120.327 111.434 120.303 111.349C121.162 110.986 122.08 110.78 123.012 110.743C123.933 110.599 124.873 110.62 125.787 110.804Z" fill="#EB996E"/>
<path d="M152.396 139.932H202.488C203.372 139.932 204.22 140.283 204.845 140.908C205.47 141.533 205.821 142.381 205.821 143.265V178.771H149.076V143.259C149.077 142.378 149.427 141.534 150.05 140.91C150.672 140.287 151.516 139.935 152.396 139.932Z" fill="#E0E0E0"/>
<path d="M205.822 181.354H139.162C139.162 180.675 139.431 180.025 139.911 179.545C140.39 179.066 141.041 178.796 141.719 178.796H205.822V181.354Z" fill="#E0E0E0"/>
<path d="M203.725 142.431H150.797V178.797H203.725V142.431Z" fill="white"/>
<path d="M203.719 178.773C203.719 178.773 203.719 178.542 203.719 178.106C203.719 177.67 203.719 177.015 203.719 176.179C203.719 174.488 203.719 172.016 203.682 168.852C203.682 162.526 203.646 153.454 203.616 142.407L203.743 142.534H150.821L150.979 142.376C150.979 155.363 150.979 167.695 150.979 178.736L150.839 178.591L188.963 178.664L199.871 178.706H202.773H203.519H203.779H203.537H202.804H199.931L189.078 178.742L150.857 178.815H150.712V178.773C150.712 167.725 150.712 155.393 150.712 142.413V142.255H150.87H203.792H203.919V142.413C203.919 153.49 203.87 162.592 203.852 168.937C203.852 172.088 203.852 174.549 203.852 176.209C203.852 177.039 203.852 177.676 203.852 178.112C203.852 178.548 203.719 178.773 203.719 178.773Z" fill="#263238"/>
<path d="M205.543 178.773C205.543 178.864 191.235 178.931 173.589 178.931C155.942 178.931 141.628 178.864 141.628 178.773C141.628 178.682 155.936 178.615 173.589 178.615C191.241 178.615 205.543 178.712 205.543 178.773Z" fill="#263238"/>
<path d="M177.255 174.524C184.936 174.524 191.162 168.297 191.162 160.616C191.162 152.935 184.936 146.708 177.255 146.708C169.574 146.708 163.347 152.935 163.347 160.616C163.347 168.297 169.574 174.524 177.255 174.524Z" fill="#3E7D89"/>
<path d="M168.613 160.954L171.559 158.166L175.625 161.911L183.63 154.379L186.539 157.13L175.582 167.529L168.613 160.954Z" fill="white"/>
<path d="M117.794 120.099C117.861 120.153 113.685 125.195 108.468 131.352C103.25 137.509 98.9657 142.454 98.899 142.412C98.8324 142.369 103.008 137.321 108.225 131.158C113.443 124.995 117.727 120.044 117.794 120.099Z" fill="#EB996E"/>
<path d="M117.073 112.286C116.936 114.044 116.696 115.792 116.351 117.521C116.113 119.27 115.769 121.002 115.321 122.709C115.457 120.949 115.698 119.198 116.042 117.467C116.285 115.721 116.629 113.991 117.073 112.286Z" fill="#263238"/>
<path d="M155.893 138.685C155.915 138.561 155.947 138.439 155.99 138.321L156.317 137.303C156.608 136.424 157.038 135.152 157.529 133.57C158.115 131.722 158.605 129.845 158.996 127.946C159.484 125.628 159.702 123.261 159.644 120.893C159.425 116.58 158.214 112.377 156.105 108.609C155.479 107.462 154.791 106.349 154.045 105.276C153.79 104.894 153.572 104.609 153.439 104.409C153.361 104.31 153.294 104.202 153.239 104.088C153.331 104.172 153.415 104.265 153.487 104.367C153.645 104.561 153.881 104.834 154.154 105.209C154.942 106.26 155.662 107.359 156.311 108.5C157.276 110.199 158.07 111.989 158.681 113.845C159.441 116.118 159.88 118.486 159.984 120.88C160.045 123.275 159.817 125.667 159.305 128.007C158.897 129.911 158.383 131.79 157.766 133.637C157.245 135.212 156.784 136.479 156.457 137.345C156.299 137.749 156.172 138.083 156.075 138.345C156.028 138.465 155.967 138.579 155.893 138.685Z" fill="#263238"/>
<path d="M143.016 119.816C143.041 120.098 143.041 120.382 143.016 120.664C143.015 120.997 142.991 121.329 142.943 121.658C142.899 122.097 142.833 122.534 142.743 122.967C142.646 123.492 142.517 124.01 142.355 124.518C142.185 125.108 141.982 125.689 141.749 126.257C141.19 127.54 140.495 128.759 139.677 129.893C138.838 131.026 137.877 132.062 136.81 132.984C136.343 133.383 135.854 133.756 135.344 134.099C134.908 134.409 134.452 134.69 133.98 134.941C133.589 135.168 133.184 135.37 132.768 135.547C132.471 135.693 132.163 135.816 131.847 135.917C131.585 136.025 131.313 136.108 131.035 136.166C131.005 136.099 132.168 135.741 133.841 134.766C134.298 134.503 134.741 134.216 135.168 133.905C135.641 133.59 136.095 133.19 136.592 132.784C138.68 130.947 140.336 128.671 141.44 126.118C141.671 125.563 141.874 124.997 142.046 124.421C142.214 123.92 142.353 123.411 142.464 122.894C142.967 121.028 142.955 119.816 143.016 119.816Z" fill="#263238"/>
<path d="M159.675 125.323C159.64 125.289 159.611 125.25 159.59 125.207L159.378 124.838C159.178 124.504 158.905 124.05 158.56 123.486C158.214 122.923 157.675 122.232 157.111 121.444C156.548 120.656 155.833 119.796 155.075 118.832C151.96 115.027 147.361 110.027 142.088 104.688C136.816 99.3494 131.865 94.6953 128.235 91.3563L125.763 89.1444C125.036 88.502 124.405 87.9324 123.878 87.4961L122.666 86.4719L122.357 86.1992C122.317 86.1709 122.282 86.1361 122.254 86.0962C122.298 86.1175 122.338 86.144 122.375 86.175C122.466 86.2416 122.575 86.3204 122.703 86.4234L123.951 87.3991L125.872 89.011C126.617 89.6534 127.454 90.3867 128.375 91.1926C132.053 94.465 137.016 99.1131 142.313 104.446C147.609 109.779 152.172 114.821 155.245 118.669C155.996 119.644 156.675 120.523 157.257 121.311L158.663 123.395C158.984 124.001 159.269 124.438 159.432 124.783L159.626 125.147C159.667 125.264 159.683 125.323 159.675 125.323Z" fill="#263238"/>
<path d="M147.906 153.359C147.795 153.398 147.679 153.42 147.561 153.425L146.573 153.565C145.713 153.68 144.458 153.813 142.937 153.953C139.84 154.231 135.544 154.456 130.817 154.401C126.09 154.347 121.776 154.001 118.697 153.65C117.152 153.474 115.903 153.304 115.061 153.165L114.073 153.007C113.957 152.995 113.844 152.968 113.734 152.929C113.851 152.914 113.969 152.914 114.085 152.929L115.079 153.032C115.94 153.135 117.194 153.268 118.715 153.413C121.8 153.71 126.084 154.019 130.835 154.074C135.586 154.128 139.859 153.934 142.955 153.716C144.501 153.607 145.755 153.51 146.591 153.431L147.585 153.353C147.692 153.344 147.8 153.346 147.906 153.359Z" fill="#263238"/>
<path d="M174.152 139.889C174.152 139.889 184.078 136.017 185.018 135.708C185.957 135.399 194.635 134.72 194.635 134.72L205.822 138.738C205.822 138.738 205.925 141.035 203.313 140.726C201.01 140.337 198.74 139.778 196.52 139.053L194.95 139.986L174.152 139.889Z" fill="#FFBE9D"/>
<path d="M205.282 141.365C205.543 141.892 206.222 141.971 206.743 142.249C207.225 142.531 207.62 142.94 207.884 143.432C208.148 143.924 208.271 144.48 208.24 145.037C208.152 146.151 207.783 147.225 207.167 148.158C206.978 148.535 206.704 148.862 206.367 149.115C206.195 149.235 205.989 149.3 205.779 149.3C205.569 149.3 205.364 149.235 205.191 149.115C205.026 148.914 204.915 148.673 204.868 148.417C204.821 148.16 204.841 147.896 204.925 147.649C205.246 145.716 204.828 143.268 205.282 141.359" fill="#FFBE9D"/>
<path d="M216.53 275.411L216.869 276.357C216.869 276.357 235.291 277.078 236.552 280.072L204.507 291.331L201.192 280.514C206.737 281.047 211.809 279.544 216.53 275.411Z" fill="#455A64"/>
<g opacity="0.6">
<path opacity="0.6" d="M205.64 282.782C205.364 282.985 205.172 283.282 205.102 283.618C205.032 283.953 205.087 284.303 205.258 284.6C205.451 284.888 205.748 285.09 206.088 285.164C206.427 285.237 206.781 285.176 207.076 284.993C207.368 284.779 207.571 284.464 207.643 284.109C207.716 283.754 207.654 283.384 207.47 283.072C207.239 282.8 206.911 282.626 206.556 282.589C206.2 282.552 205.844 282.653 205.561 282.872" fill="white"/>
</g>
<g opacity="0.6">
<path opacity="0.6" d="M204.507 291.332L203.713 288.732L234.716 278.891C234.716 278.891 236.358 279.012 236.534 280.102L204.507 291.332Z" fill="white"/>
</g>
<path d="M217.014 276.411C217.063 276.568 216.305 276.914 215.712 277.689C215.118 278.465 214.942 279.265 214.778 279.253C214.615 279.241 214.524 278.253 215.257 277.332C215.99 276.411 216.996 276.253 217.014 276.411Z" fill="#263238"/>
<path d="M220.862 276.615C220.953 276.755 220.365 277.258 220.069 278.106C219.772 278.955 219.862 279.712 219.705 279.761C219.547 279.809 219.135 278.955 219.529 277.906C219.923 276.858 220.808 276.47 220.862 276.615Z" fill="#263238"/>
<path d="M224.184 279.974C224.056 280.059 223.577 279.368 223.662 278.356C223.747 277.344 224.377 276.762 224.487 276.865C224.596 276.969 224.311 277.593 224.238 278.411C224.165 279.229 224.335 279.902 224.184 279.974Z" fill="#263238"/>
</svg>
